STARTFONT 2.1
FONT -sunjapk-gothic-medium-r-normal--18-160-75-75-c-80-jisx0201.1976-0
SIZE 16 75 75
FONTBOUNDINGBOX 8 18 0 -3

STARTPROPERTIES 22
FONTNAME_REGISTRY ""
FOUNDRY "sunjapk"
FAMILY_NAME "gothic"
WEIGHT_NAME "medium"
SLANT "r"
SETWIDTH_NAME "normal"
ADD_STYLE_NAME ""
PIXEL_SIZE 18
POINT_SIZE 160
RESOLUTION_X 75
RESOLUTION_Y 75
SPACING "c"
AVERAGE_WIDTH 80
CHARSET_REGISTRY "jisx0201.1976"
CHARSET_ENCODING "0"
COPYRIGHT "Copyright (c) 1990 SCR Corporation"
WEIGHT 10
X_HEIGHT 0
QUAD_WIDTH 8
DEFAULT_CHAR 32
FONT_DESCENT 3
FONT_ASCENT 15
ENDPROPERTIES

CHARS 170

STARTCHAR 0xb
ENCODING 11
SWIDTH 500 0
DWIDTH 8 0
BBX 8 18 0 -3
BITMAP
00
00
00
00
08
3C
48
48
48
48
48
48
3C
08
0F
00
00
00
ENDCHAR

STARTCHAR 0xc
ENCODING 12
SWIDTH 500 0
DWIDTH 8 0
BBX 8 18 0 -3
BITMAP
00
00
00
00
00
00
00
3D
42
85
89
91
A1
42
BC
00
00
00
ENDCHAR

STARTCHAR 0xd
ENCODING 13
SWIDTH 500 0
DWIDTH 8 0
BBX 8 18 0 -3
BITMAP
00
00
00
00
00
00
18
24
24
18
00
00
00
00
00
00
00
00
ENDCHAR

STARTCHAR 0xe
ENCODING 14
SWIDTH 500 0
DWIDTH 8 0
BBX 8 18 0 -3
BITMAP
00
00
00
00
00
00
3C
42
81
81
81
42
46
24
24
E7
00
00
ENDCHAR

STARTCHAR 0xf
ENCODING 15
SWIDTH 500 0
DWIDTH 8 0
BBX 8 18 0 -3
BITMAP
00
00
00
00
00
00
03
0C
30
40
30
0C
03
00
7F
00
00
00
ENDCHAR

STARTCHAR 0x10
ENCODING 16
SWIDTH 500 0
DWIDTH 8 0
BBX 8 18 0 -3
BITMAP
00
00
00
00
00
00
60
18
06
01
06
18
60
00
7F
00
00
00
ENDCHAR

STARTCHAR 0x11
ENCODING 17
SWIDTH 500 0
DWIDTH 8 0
BBX 8 18 0 -3
BITMAP
00
00
00
00
00
08
08
08
7F
08
08
08
00
7F
00
00
00
00
ENDCHAR

STARTCHAR 0x12
ENCODING 18
SWIDTH 500 0
DWIDTH 8 0
BBX 8 18 0 -3
BITMAP
00
00
00
00
00
00
00
44
44
44
44
44
78
47
44
80
00
00
ENDCHAR

STARTCHAR 0x13
ENCODING 19
SWIDTH 500 0
DWIDTH 8 0
BBX 8 18 0 -3
BITMAP
00
00
00
00
00
00
18
3C
3C
18
00
00
00
00
00
00
00
00
ENDCHAR

STARTCHAR 0x14
ENCODING 20
SWIDTH 500 0
DWIDTH 8 0
BBX 8 18 0 -3
BITMAP
00
00
00
00
00
00
41
22
14
08
00
00
00
00
00
00
00
00
ENDCHAR

STARTCHAR 0x15
ENCODING 21
SWIDTH 500 0
DWIDTH 8 0
BBX 8 18 0 -3
BITMAP
00
00
00
00
00
00
41
41
41
41
41
41
41
7F
00
00
00
00
ENDCHAR

STARTCHAR 0x16
ENCODING 22
SWIDTH 500 0
DWIDTH 8 0
BBX 8 18 0 -3
BITMAP
00
00
00
00
00
7F
08
08
08
08
08
1C
1C
08
00
00
00
00
ENDCHAR

STARTCHAR 0x20
ENCODING 32
SWIDTH 500 0
DWIDTH 8 0
BBX 8 18 0 -3
BITMAP
00
00
00
00
00
00
00
00
00
00
00
00
00
00
00
00
00
00
ENDCHAR

STARTCHAR 0x21
ENCODING 33
SWIDTH 500 0
DWIDTH 8 0
BBX 8 18 0 -3
BITMAP
00
00
10
10
10
10
10
10
10
10
00
00
18
18
00
00
00
00
ENDCHAR

STARTCHAR 0x22
ENCODING 34
SWIDTH 500 0
DWIDTH 8 0
BBX 8 18 0 -3
BITMAP
00
00
D8
D8
48
90
00
00
00
00
00
00
00
00
00
00
00
00
ENDCHAR

STARTCHAR 0x23
ENCODING 35
SWIDTH 500 0
DWIDTH 8 0
BBX 8 18 0 -3
BITMAP
00
00
24
24
24
7E
24
24
24
FE
48
48
48
48
00
00
00
00
ENDCHAR

STARTCHAR 0x24
ENCODING 36
SWIDTH 500 0
DWIDTH 8 0
BBX 8 18 0 -3
BITMAP
00
00
10
38
54
54
50
30
18
14
54
54
38
10
00
00
00
00
ENDCHAR

STARTCHAR 0x25
ENCODING 37
SWIDTH 500 0
DWIDTH 8 0
BBX 8 18 0 -3
BITMAP
00
00
42
A2
A4
A4
A8
50
14
2A
4A
4A
8A
84
00
00
00
00
ENDCHAR

STARTCHAR 0x26
ENCODING 38
SWIDTH 500 0
DWIDTH 8 0
BBX 8 18 0 -3
BITMAP
00
00
30
48
48
48
30
20
52
8A
8C
84
8A
72
00
00
00
00
ENDCHAR

STARTCHAR 0x27
ENCODING 39
SWIDTH 500 0
DWIDTH 8 0
BBX 8 18 0 -3
BITMAP
00
00
C0
C0
40
80
00
00
00
00
00
00
00
00
00
00
00
00
ENDCHAR

STARTCHAR 0x28
ENCODING 40
SWIDTH 500 0
DWIDTH 8 0
BBX 8 18 0 -3
BITMAP
00
02
04
08
08
10
10
10
10
10
10
10
10
08
08
04
02
00
ENDCHAR

STARTCHAR 0x29
ENCODING 41
SWIDTH 500 0
DWIDTH 8 0
BBX 8 18 0 -3
BITMAP
00
40
20
10
10
08
08
08
08
08
08
08
08
10
10
20
40
00
ENDCHAR

STARTCHAR 0x2a
ENCODING 42
SWIDTH 500 0
DWIDTH 8 0
BBX 8 18 0 -3
BITMAP
00
00
10
10
92
D6
54
38
38
54
D6
92
10
10
00
00
00
00
ENDCHAR

STARTCHAR 0x2b
ENCODING 43
SWIDTH 500 0
DWIDTH 8 0
BBX 8 18 0 -3
BITMAP
00
00
00
10
10
10
10
10
FE
10
10
10
10
10
00
00
00
00
ENDCHAR

STARTCHAR 0x2c
ENCODING 44
SWIDTH 500 0
DWIDTH 8 0
BBX 8 18 0 -3
BITMAP
00
00
00
00
00
00
00
00
00
00
00
00
60
60
20
40
00
00
ENDCHAR

STARTCHAR 0x2d
ENCODING 45
SWIDTH 500 0
DWIDTH 8 0
BBX 8 18 0 -3
BITMAP
00
00
00
00
00
00
00
00
7E
00
00
00
00
00
00
00
00
00
ENDCHAR

STARTCHAR 0x2e
ENCODING 46
SWIDTH 500 0
DWIDTH 8 0
BBX 8 18 0 -3
BITMAP
00
00
00
00
00
00
00
00
00
00
00
00
60
60
00
00
00
00
ENDCHAR

STARTCHAR 0x2f
ENCODING 47
SWIDTH 500 0
DWIDTH 8 0
BBX 8 18 0 -3
BITMAP
00
01
01
02
02
04
04
08
08
10
10
20
20
40
40
80
80
00
ENDCHAR

STARTCHAR 0x30
ENCODING 48
SWIDTH 500 0
DWIDTH 8 0
BBX 8 18 0 -3
BITMAP
00
00
18
24
42
42
42
42
42
42
42
42
24
18
00
00
00
00
ENDCHAR

STARTCHAR 0x31
ENCODING 49
SWIDTH 500 0
DWIDTH 8 0
BBX 8 18 0 -3
BITMAP
00
00
08
38
08
08
08
08
08
08
08
08
08
08
00
00
00
00
ENDCHAR

STARTCHAR 0x32
ENCODING 50
SWIDTH 500 0
DWIDTH 8 0
BBX 8 18 0 -3
BITMAP
00
00
3C
42
42
42
02
04
08
10
20
20
40
7E
00
00
00
00
ENDCHAR

STARTCHAR 0x33
ENCODING 51
SWIDTH 500 0
DWIDTH 8 0
BBX 8 18 0 -3
BITMAP
00
00
3C
42
42
02
02
3C
02
02
42
42
42
3C
00
00
00
00
ENDCHAR

STARTCHAR 0x34
ENCODING 52
SWIDTH 500 0
DWIDTH 8 0
BBX 8 18 0 -3
BITMAP
00
00
04
0C
0C
14
24
24
44
84
FF
04
04
04
00
00
00
00
ENDCHAR

STARTCHAR 0x35
ENCODING 53
SWIDTH 500 0
DWIDTH 8 0
BBX 8 18 0 -3
BITMAP
00
00
7E
40
40
40
7C
42
02
02
42
42
42
3C
00
00
00
00
ENDCHAR

STARTCHAR 0x36
ENCODING 54
SWIDTH 500 0
DWIDTH 8 0
BBX 8 18 0 -3
BITMAP
00
00
3C
42
42
40
40
7C
42
42
42
42
42
3C
00
00
00
00
ENDCHAR

STARTCHAR 0x37
ENCODING 55
SWIDTH 500 0
DWIDTH 8 0
BBX 8 18 0 -3
BITMAP
00
00
FE
02
04
04
08
08
08
10
10
10
10
10
00
00
00
00
ENDCHAR

STARTCHAR 0x38
ENCODING 56
SWIDTH 500 0
DWIDTH 8 0
BBX 8 18 0 -3
BITMAP
00
00
3C
42
42
42
42
3C
42
42
42
42
42
3C
00
00
00
00
ENDCHAR

STARTCHAR 0x39
ENCODING 57
SWIDTH 500 0
DWIDTH 8 0
BBX 8 18 0 -3
BITMAP
00
00
3C
42
42
42
42
42
3E
02
02
42
42
3C
00
00
00
00
ENDCHAR

STARTCHAR 0x3a
ENCODING 58
SWIDTH 500 0
DWIDTH 8 0
BBX 8 18 0 -3
BITMAP
00
00
00
00
00
18
18
00
00
00
00
00
18
18
00
00
00
00
ENDCHAR

STARTCHAR 0x3b
ENCODING 59
SWIDTH 500 0
DWIDTH 8 0
BBX 8 18 0 -3
BITMAP
00
00
00
00
00
18
18
00
00
00
00
00
18
18
08
10
00
00
ENDCHAR

STARTCHAR 0x3c
ENCODING 60
SWIDTH 500 0
DWIDTH 8 0
BBX 8 18 0 -3
BITMAP
00
00
00
02
04
08
10
20
40
20
10
08
04
02
00
00
00
00
ENDCHAR

STARTCHAR 0x3d
ENCODING 61
SWIDTH 500 0
DWIDTH 8 0
BBX 8 18 0 -3
BITMAP
00
00
00
00
00
00
7E
00
00
00
7E
00
00
00
00
00
00
00
ENDCHAR

STARTCHAR 0x3e
ENCODING 62
SWIDTH 500 0
DWIDTH 8 0
BBX 8 18 0 -3
BITMAP
00
00
00
40
20
10
08
04
02
04
08
10
20
40
00
00
00
00
ENDCHAR

STARTCHAR 0x3f
ENCODING 63
SWIDTH 500 0
DWIDTH 8 0
BBX 8 18 0 -3
BITMAP
00
00
3C
42
42
42
04
08
10
10
00
00
18
18
00
00
00
00
ENDCHAR

STARTCHAR 0x40
ENCODING 64
SWIDTH 500 0
DWIDTH 8 0
BBX 8 18 0 -3
BITMAP
00
00
18
66
42
9D
A5
A5
A5
A5
9A
40
62
1C
00
00
00
00
ENDCHAR

STARTCHAR 0x41
ENCODING 65
SWIDTH 500 0
DWIDTH 8 0
BBX 8 18 0 -3
BITMAP
00
00
18
18
18
24
24
24
24
7E
42
42
42
42
00
00
00
00
ENDCHAR

STARTCHAR 0x42
ENCODING 66
SWIDTH 500 0
DWIDTH 8 0
BBX 8 18 0 -3
BITMAP
00
00
78
44
44
44
44
78
44
42
42
42
44
78
00
00
00
00
ENDCHAR

STARTCHAR 0x43
ENCODING 67
SWIDTH 500 0
DWIDTH 8 0
BBX 8 18 0 -3
BITMAP
00
00
18
24
42
42
40
40
40
40
42
42
24
18
00
00
00
00
ENDCHAR

STARTCHAR 0x44
ENCODING 68
SWIDTH 500 0
DWIDTH 8 0
BBX 8 18 0 -3
BITMAP
00
00
78
44
42
42
42
42
42
42
42
42
44
78
00
00
00
00
ENDCHAR

STARTCHAR 0x45
ENCODING 69
SWIDTH 500 0
DWIDTH 8 0
BBX 8 18 0 -3
BITMAP
00
00
7E
40
40
40
40
7C
40
40
40
40
40
7E
00
00
00
00
ENDCHAR

STARTCHAR 0x46
ENCODING 70
SWIDTH 500 0
DWIDTH 8 0
BBX 8 18 0 -3
BITMAP
00
00
7E
40
40
40
40
7C
40
40
40
40
40
40
00
00
00
00
ENDCHAR

STARTCHAR 0x47
ENCODING 71
SWIDTH 500 0
DWIDTH 8 0
BBX 8 18 0 -3
BITMAP
00
00
18
24
42
42
40
40
4E
42
42
42
26
1A
00
00
00
00
ENDCHAR

STARTCHAR 0x48
ENCODING 72
SWIDTH 500 0
DWIDTH 8 0
BBX 8 18 0 -3
BITMAP
00
00
42
42
42
42
42
7E
42
42
42
42
42
42
00
00
00
00
ENDCHAR

STARTCHAR 0x49
ENCODING 73
SWIDTH 500 0
DWIDTH 8 0
BBX 8 18 0 -3
BITMAP
00
00
38
10
10
10
10
10
10
10
10
10
10
38
00
00
00
00
ENDCHAR

STARTCHAR 0x4a
ENCODING 74
SWIDTH 500 0
DWIDTH 8 0
BBX 8 18 0 -3
BITMAP
00
00
04
04
04
04
04
04
04
04
44
44
44
38
00
00
00
00
ENDCHAR

STARTCHAR 0x4b
ENCODING 75
SWIDTH 500 0
DWIDTH 8 0
BBX 8 18 0 -3
BITMAP
00
00
42
44
44
48
50
50
68
48
44
44
42
42
00
00
00
00
ENDCHAR

STARTCHAR 0x4c
ENCODING 76
SWIDTH 500 0
DWIDTH 8 0
BBX 8 18 0 -3
BITMAP
00
00
40
40
40
40
40
40
40
40
40
40
40
7E
00
00
00
00
ENDCHAR

STARTCHAR 0x4d
ENCODING 77
SWIDTH 500 0
DWIDTH 8 0
BBX 8 18 0 -3
BITMAP
00
00
82
82
C6
C6
C6
AA
AA
AA
AA
92
92
92
00
00
00
00
ENDCHAR

STARTCHAR 0x4e
ENCODING 78
SWIDTH 500 0
DWIDTH 8 0
BBX 8 18 0 -3
BITMAP
00
00
42
42
62
62
52
52
4A
4A
46
46
42
42
00
00
00
00
ENDCHAR

STARTCHAR 0x4f
ENCODING 79
SWIDTH 500 0
DWIDTH 8 0
BBX 8 18 0 -3
BITMAP
00
00
3C
42
42
42
42
42
42
42
42
42
42
3C
00
00
00
00
ENDCHAR

STARTCHAR 0x50
ENCODING 80
SWIDTH 500 0
DWIDTH 8 0
BBX 8 18 0 -3
BITMAP
00
00
78
44
42
42
42
44
78
40
40
40
40
40
00
00
00
00
ENDCHAR

STARTCHAR 0x51
ENCODING 81
SWIDTH 500 0
DWIDTH 8 0
BBX 8 18 0 -3
BITMAP
00
00
18
24
42
42
42
42
42
42
4A
46
24
1A
00
00
00
00
ENDCHAR

STARTCHAR 0x52
ENCODING 82
SWIDTH 500 0
DWIDTH 8 0
BBX 8 18 0 -3
BITMAP
00
00
78
44
42
42
44
78
44
44
42
42
42
42
00
00
00
00
ENDCHAR

STARTCHAR 0x53
ENCODING 83
SWIDTH 500 0
DWIDTH 8 0
BBX 8 18 0 -3
BITMAP
00
00
3C
42
42
42
20
18
04
02
42
42
42
3C
00
00
00
00
ENDCHAR

STARTCHAR 0x54
ENCODING 84
SWIDTH 500 0
DWIDTH 8 0
BBX 8 18 0 -3
BITMAP
00
00
FE
10
10
10
10
10
10
10
10
10
10
10
00
00
00
00
ENDCHAR

STARTCHAR 0x55
ENCODING 85
SWIDTH 500 0
DWIDTH 8 0
BBX 8 18 0 -3
BITMAP
00
00
42
42
42
42
42
42
42
42
42
42
24
18
00
00
00
00
ENDCHAR

STARTCHAR 0x56
ENCODING 86
SWIDTH 500 0
DWIDTH 8 0
BBX 8 18 0 -3
BITMAP
00
00
42
42
42
42
24
24
24
24
18
18
18
18
00
00
00
00
ENDCHAR

STARTCHAR 0x57
ENCODING 87
SWIDTH 500 0
DWIDTH 8 0
BBX 8 18 0 -3
BITMAP
00
00
92
92
92
92
AA
AA
AA
AA
44
44
44
44
00
00
00
00
ENDCHAR

STARTCHAR 0x58
ENCODING 88
SWIDTH 500 0
DWIDTH 8 0
BBX 8 18 0 -3
BITMAP
00
00
82
44
44
28
28
10
10
28
28
44
44
82
00
00
00
00
ENDCHAR

STARTCHAR 0x59
ENCODING 89
SWIDTH 500 0
DWIDTH 8 0
BBX 8 18 0 -3
BITMAP
00
00
82
82
44
44
28
28
10
10
10
10
10
10
00
00
00
00
ENDCHAR

STARTCHAR 0x5a
ENCODING 90
SWIDTH 500 0
DWIDTH 8 0
BBX 8 18 0 -3
BITMAP
00
00
7E
02
04
04
08
08
10
10
20
20
40
7E
00
00
00
00
ENDCHAR

STARTCHAR 0x5b
ENCODING 91
SWIDTH 500 0
DWIDTH 8 0
BBX 8 18 0 -3
BITMAP
00
0E
08
08
08
08
08
08
08
08
08
08
08
08
08
08
0E
00
ENDCHAR

STARTCHAR 0x5c
ENCODING 92
SWIDTH 500 0
DWIDTH 8 0
BBX 8 18 0 -3
BITMAP
00
00
82
82
44
44
FE
28
10
FE
10
10
10
10
00
00
00
00
ENDCHAR

STARTCHAR 0x5d
ENCODING 93
SWIDTH 500 0
DWIDTH 8 0
BBX 8 18 0 -3
BITMAP
00
70
10
10
10
10
10
10
10
10
10
10
10
10
10
10
70
00
ENDCHAR

STARTCHAR 0x5e
ENCODING 94
SWIDTH 500 0
DWIDTH 8 0
BBX 8 18 0 -3
BITMAP
00
00
10
28
44
00
00
00
00
00
00
00
00
00
00
00
00
00
ENDCHAR

STARTCHAR 0x5f
ENCODING 95
SWIDTH 500 0
DWIDTH 8 0
BBX 8 18 0 -3
BITMAP
00
00
00
00
00
00
00
00
00
00
00
00
00
00
00
7E
00
00
ENDCHAR

STARTCHAR 0x60
ENCODING 96
SWIDTH 500 0
DWIDTH 8 0
BBX 8 18 0 -3
BITMAP
00
00
20
10
08
00
00
00
00
00
00
00
00
00
00
00
00
00
ENDCHAR

STARTCHAR 0x61
ENCODING 97
SWIDTH 500 0
DWIDTH 8 0
BBX 8 18 0 -3
BITMAP
00
00
00
00
00
38
44
44
04
3C
44
44
44
3A
00
00
00
00
ENDCHAR

STARTCHAR 0x62
ENCODING 98
SWIDTH 500 0
DWIDTH 8 0
BBX 8 18 0 -3
BITMAP
00
00
40
40
40
58
64
44
44
44
44
44
64
58
00
00
00
00
ENDCHAR

STARTCHAR 0x63
ENCODING 99
SWIDTH 500 0
DWIDTH 8 0
BBX 8 18 0 -3
BITMAP
00
00
00
00
00
38
44
44
40
40
40
44
44
38
00
00
00
00
ENDCHAR

STARTCHAR 0x64
ENCODING 100
SWIDTH 500 0
DWIDTH 8 0
BBX 8 18 0 -3
BITMAP
00
00
04
04
04
34
4C
44
44
44
44
44
4C
34
00
00
00
00
ENDCHAR

STARTCHAR 0x65
ENCODING 101
SWIDTH 500 0
DWIDTH 8 0
BBX 8 18 0 -3
BITMAP
00
00
00
00
00
38
44
44
44
7C
40
44
44
38
00
00
00
00
ENDCHAR

STARTCHAR 0x66
ENCODING 102
SWIDTH 500 0
DWIDTH 8 0
BBX 8 18 0 -3
BITMAP
00
00
0C
10
10
7C
10
10
10
10
10
10
10
10
00
00
00
00
ENDCHAR

STARTCHAR 0x67
ENCODING 103
SWIDTH 500 0
DWIDTH 8 0
BBX 8 18 0 -3
BITMAP
00
00
00
00
00
34
4C
44
44
44
44
4C
34
04
44
38
00
00
ENDCHAR

STARTCHAR 0x68
ENCODING 104
SWIDTH 500 0
DWIDTH 8 0
BBX 8 18 0 -3
BITMAP
00
00
40
40
40
58
64
44
44
44
44
44
44
44
00
00
00
00
ENDCHAR

STARTCHAR 0x69
ENCODING 105
SWIDTH 500 0
DWIDTH 8 0
BBX 8 18 0 -3
BITMAP
00
00
10
10
00
10
10
10
10
10
10
10
10
10
00
00
00
00
ENDCHAR

STARTCHAR 0x6a
ENCODING 106
SWIDTH 500 0
DWIDTH 8 0
BBX 8 18 0 -3
BITMAP
00
00
08
08
00
08
08
08
08
08
08
08
08
08
08
30
00
00
ENDCHAR

STARTCHAR 0x6b
ENCODING 107
SWIDTH 500 0
DWIDTH 8 0
BBX 8 18 0 -3
BITMAP
00
00
40
40
40
44
48
48
50
68
48
44
44
44
00
00
00
00
ENDCHAR

STARTCHAR 0x6c
ENCODING 108
SWIDTH 500 0
DWIDTH 8 0
BBX 8 18 0 -3
BITMAP
00
10
10
10
10
10
10
10
10
10
10
10
10
10
00
00
00
00
ENDCHAR

STARTCHAR 0x6d
ENCODING 109
SWIDTH 500 0
DWIDTH 8 0
BBX 8 18 0 -3
BITMAP
00
00
00
00
00
6C
52
52
52
52
52
52
52
52
00
00
00
00
ENDCHAR

STARTCHAR 0x6e
ENCODING 110
SWIDTH 500 0
DWIDTH 8 0
BBX 8 18 0 -3
BITMAP
00
00
00
00
00
58
64
44
44
44
44
44
44
44
00
00
00
00
ENDCHAR

STARTCHAR 0x6f
ENCODING 111
SWIDTH 500 0
DWIDTH 8 0
BBX 8 18 0 -3
BITMAP
00
00
00
00
00
38
44
44
44
44
44
44
44
38
00
00
00
00
ENDCHAR

STARTCHAR 0x70
ENCODING 112
SWIDTH 500 0
DWIDTH 8 0
BBX 8 18 0 -3
BITMAP
00
00
00
00
00
58
64
44
44
44
44
44
64
58
40
40
00
00
ENDCHAR

STARTCHAR 0x71
ENCODING 113
SWIDTH 500 0
DWIDTH 8 0
BBX 8 18 0 -3
BITMAP
00
00
00
00
00
34
4C
44
44
44
44
44
4C
34
04
04
00
00
ENDCHAR

STARTCHAR 0x72
ENCODING 114
SWIDTH 500 0
DWIDTH 8 0
BBX 8 18 0 -3
BITMAP
00
00
00
00
00
26
28
30
20
20
20
20
20
20
00
00
00
00
ENDCHAR

STARTCHAR 0x73
ENCODING 115
SWIDTH 500 0
DWIDTH 8 0
BBX 8 18 0 -3
BITMAP
00
00
00
00
00
38
44
44
20
18
04
44
44
38
00
00
00
00
ENDCHAR

STARTCHAR 0x74
ENCODING 116
SWIDTH 500 0
DWIDTH 8 0
BBX 8 18 0 -3
BITMAP
00
00
10
10
10
7C
10
10
10
10
10
10
10
0C
00
00
00
00
ENDCHAR

STARTCHAR 0x75
ENCODING 117
SWIDTH 500 0
DWIDTH 8 0
BBX 8 18 0 -3
BITMAP
00
00
00
00
00
44
44
44
44
44
44
44
4C
34
00
00
00
00
ENDCHAR

STARTCHAR 0x76
ENCODING 118
SWIDTH 500 0
DWIDTH 8 0
BBX 8 18 0 -3
BITMAP
00
00
00
00
00
44
44
44
44
28
28
28
10
10
00
00
00
00
ENDCHAR

STARTCHAR 0x77
ENCODING 119
SWIDTH 500 0
DWIDTH 8 0
BBX 8 18 0 -3
BITMAP
00
00
00
00
00
54
54
54
54
54
28
28
28
28
00
00
00
00
ENDCHAR

STARTCHAR 0x78
ENCODING 120
SWIDTH 500 0
DWIDTH 8 0
BBX 8 18 0 -3
BITMAP
00
00
00
00
00
44
44
28
28
10
28
28
44
44
00
00
00
00
ENDCHAR

STARTCHAR 0x79
ENCODING 121
SWIDTH 500 0
DWIDTH 8 0
BBX 8 18 0 -3
BITMAP
00
00
00
00
00
42
42
24
24
14
18
18
08
10
10
60
00
00
ENDCHAR

STARTCHAR 0x7a
ENCODING 122
SWIDTH 500 0
DWIDTH 8 0
BBX 8 18 0 -3
BITMAP
00
00
00
00
00
7C
04
08
08
10
20
20
40
7C
00
00
00
00
ENDCHAR

STARTCHAR 0x7b
ENCODING 123
SWIDTH 500 0
DWIDTH 8 0
BBX 8 18 0 -3
BITMAP
00
02
04
04
04
04
04
04
08
04
04
04
04
04
04
04
02
00
ENDCHAR

STARTCHAR 0x7c
ENCODING 124
SWIDTH 500 0
DWIDTH 8 0
BBX 8 18 0 -3
BITMAP
00
10
10
10
10
10
10
10
00
10
10
10
10
10
10
10
10
00
ENDCHAR

STARTCHAR 0x7d
ENCODING 125
SWIDTH 500 0
DWIDTH 8 0
BBX 8 18 0 -3
BITMAP
00
40
20
20
20
20
20
20
10
20
20
20
20
20
20
20
40
00
ENDCHAR

STARTCHAR 0x7e
ENCODING 126
SWIDTH 500 0
DWIDTH 8 0
BBX 8 18 0 -3
BITMAP
00
32
4C
00
00
00
00
00
00
00
00
00
00
00
00
00
00
00
ENDCHAR

STARTCHAR 0xa1
ENCODING 161
SWIDTH 500 0
DWIDTH 8 0
BBX 8 18 0 -3
BITMAP
00
00
00
00
00
00
00
00
00
00
00
00
60
90
90
60
00
00
ENDCHAR

STARTCHAR 0xa2
ENCODING 162
SWIDTH 500 0
DWIDTH 8 0
BBX 8 18 0 -3
BITMAP
00
00
0E
08
08
08
08
08
08
08
08
08
08
08
08
00
00
00
ENDCHAR

STARTCHAR 0xa3
ENCODING 163
SWIDTH 500 0
DWIDTH 8 0
BBX 8 18 0 -3
BITMAP
00
00
00
10
10
10
10
10
10
10
10
10
10
10
10
70
00
00
ENDCHAR

STARTCHAR 0xa4
ENCODING 164
SWIDTH 500 0
DWIDTH 8 0
BBX 8 18 0 -3
BITMAP
00
00
00
00
00
00
00
00
00
00
00
00
00
80
40
40
00
00
ENDCHAR

STARTCHAR 0xa5
ENCODING 165
SWIDTH 500 0
DWIDTH 8 0
BBX 8 18 0 -3
BITMAP
00
00
00
00
00
00
00
00
18
18
00
00
00
00
00
00
00
00
ENDCHAR

STARTCHAR 0xa6
ENCODING 166
SWIDTH 500 0
DWIDTH 8 0
BBX 8 18 0 -3
BITMAP
00
00
00
7E
02
02
02
7E
04
04
04
08
08
10
20
00
00
00
ENDCHAR

STARTCHAR 0xa7
ENCODING 167
SWIDTH 500 0
DWIDTH 8 0
BBX 8 18 0 -3
BITMAP
00
00
00
00
00
00
00
7C
04
04
14
18
10
10
10
20
00
00
ENDCHAR

STARTCHAR 0xa8
ENCODING 168
SWIDTH 500 0
DWIDTH 8 0
BBX 8 18 0 -3
BITMAP
00
00
00
00
00
00
04
04
08
08
18
28
48
08
08
08
00
00
ENDCHAR

STARTCHAR 0xa9
ENCODING 169
SWIDTH 500 0
DWIDTH 8 0
BBX 8 18 0 -3
BITMAP
00
00
00
00
00
00
10
10
7C
44
44
44
08
08
10
20
00
00
ENDCHAR

STARTCHAR 0xaa
ENCODING 170
SWIDTH 500 0
DWIDTH 8 0
BBX 8 18 0 -3
BITMAP
00
00
00
00
00
00
00
00
7C
10
10
10
10
10
7C
00
00
00
ENDCHAR

STARTCHAR 0xab
ENCODING 171
SWIDTH 500 0
DWIDTH 8 0
BBX 8 18 0 -3
BITMAP
00
00
00
00
00
00
08
08
7E
08
18
18
28
28
48
18
00
00
ENDCHAR

STARTCHAR 0xac
ENCODING 172
SWIDTH 500 0
DWIDTH 8 0
BBX 8 18 0 -3
BITMAP
00
00
00
00
00
00
10
10
1E
72
14
14
08
08
08
08
00
00
ENDCHAR

STARTCHAR 0xad
ENCODING 173
SWIDTH 500 0
DWIDTH 8 0
BBX 8 18 0 -3
BITMAP
00
00
00
00
00
00
00
00
3C
04
04
04
04
04
7E
00
00
00
ENDCHAR

STARTCHAR 0xae
ENCODING 174
SWIDTH 500 0
DWIDTH 8 0
BBX 8 18 0 -3
BITMAP
00
00
00
00
00
00
00
00
3C
04
04
3C
04
04
3C
00
00
00
ENDCHAR

STARTCHAR 0xaf
ENCODING 175
SWIDTH 500 0
DWIDTH 8 0
BBX 8 18 0 -3
BITMAP
00
00
00
00
00
00
00
10
54
54
44
04
08
08
10
20
00
00
ENDCHAR

STARTCHAR 0xb0
ENCODING 176
SWIDTH 500 0
DWIDTH 8 0
BBX 8 18 0 -3
BITMAP
00
00
00
00
00
00
00
00
7E
00
00
00
00
00
00
00
00
00
ENDCHAR

STARTCHAR 0xb1
ENCODING 177
SWIDTH 500 0
DWIDTH 8 0
BBX 8 18 0 -3
BITMAP
00
00
00
7E
02
02
04
14
18
10
10
10
10
20
20
40
00
00
ENDCHAR

STARTCHAR 0xb2
ENCODING 178
SWIDTH 500 0
DWIDTH 8 0
BBX 8 18 0 -3
BITMAP
00
00
02
02
04
04
08
18
28
C8
08
08
08
08
08
08
00
00
ENDCHAR

STARTCHAR 0xb3
ENCODING 179
SWIDTH 500 0
DWIDTH 8 0
BBX 8 18 0 -3
BITMAP
00
00
10
10
10
7E
42
42
42
42
02
04
04
08
10
20
00
00
ENDCHAR

STARTCHAR 0xb4
ENCODING 180
SWIDTH 500 0
DWIDTH 8 0
BBX 8 18 0 -3
BITMAP
00
00
00
00
7C
10
10
10
10
10
10
10
10
FE
00
00
00
00
ENDCHAR

STARTCHAR 0xb5
ENCODING 181
SWIDTH 500 0
DWIDTH 8 0
BBX 8 18 0 -3
BITMAP
00
00
04
04
04
7F
0C
0C
14
14
14
24
24
44
04
18
00
00
ENDCHAR

STARTCHAR 0xb6
ENCODING 182
SWIDTH 500 0
DWIDTH 8 0
BBX 8 18 0 -3
BITMAP
00
00
10
10
10
7E
12
12
12
12
12
22
22
22
42
4C
00
00
ENDCHAR

STARTCHAR 0xb7
ENCODING 183
SWIDTH 500 0
DWIDTH 8 0
BBX 8 18 0 -3
BITMAP
00
00
10
10
1E
F0
10
10
1F
F8
08
08
08
08
08
08
00
00
ENDCHAR

STARTCHAR 0xb8
ENCODING 184
SWIDTH 500 0
DWIDTH 8 0
BBX 8 18 0 -3
BITMAP
00
00
20
20
3E
22
42
42
84
04
04
08
08
10
20
40
00
00
ENDCHAR

STARTCHAR 0xb9
ENCODING 185
SWIDTH 500 0
DWIDTH 8 0
BBX 8 18 0 -3
BITMAP
00
00
20
20
20
3F
44
44
84
04
04
04
08
08
10
20
00
00
ENDCHAR

STARTCHAR 0xba
ENCODING 186
SWIDTH 500 0
DWIDTH 8 0
BBX 8 18 0 -3
BITMAP
00
00
00
00
7E
02
02
02
02
02
02
02
02
7E
02
00
00
00
ENDCHAR

STARTCHAR 0xbb
ENCODING 187
SWIDTH 500 0
DWIDTH 8 0
BBX 8 18 0 -3
BITMAP
00
00
24
24
24
FF
24
24
24
24
24
04
08
08
10
20
00
00
ENDCHAR

STARTCHAR 0xbc
ENCODING 188
SWIDTH 500 0
DWIDTH 8 0
BBX 8 18 0 -3
BITMAP
00
00
00
20
10
00
01
41
21
01
02
02
04
08
10
60
00
00
ENDCHAR

STARTCHAR 0xbd
ENCODING 189
SWIDTH 500 0
DWIDTH 8 0
BBX 8 18 0 -3
BITMAP
00
00
00
7C
04
04
04
08
08
08
14
14
22
42
82
00
00
00
ENDCHAR

STARTCHAR 0xbe
ENCODING 190
SWIDTH 500 0
DWIDTH 8 0
BBX 8 18 0 -3
BITMAP
00
00
40
40
40
4E
72
C4
44
48
48
40
40
40
3E
00
00
00
ENDCHAR

STARTCHAR 0xbf
ENCODING 191
SWIDTH 500 0
DWIDTH 8 0
BBX 8 18 0 -3
BITMAP
00
00
00
82
82
42
42
02
02
04
04
04
08
08
10
20
00
00
ENDCHAR

STARTCHAR 0xc0
ENCODING 192
SWIDTH 500 0
DWIDTH 8 0
BBX 8 18 0 -3
BITMAP
00
00
20
20
3E
22
42
42
A4
14
0C
08
08
10
20
40
00
00
ENDCHAR

STARTCHAR 0xc1
ENCODING 193
SWIDTH 500 0
DWIDTH 8 0
BBX 8 18 0 -3
BITMAP
00
00
02
0C
78
08
08
08
FF
08
08
08
10
10
20
40
00
00
ENDCHAR

STARTCHAR 0xc2
ENCODING 194
SWIDTH 500 0
DWIDTH 8 0
BBX 8 18 0 -3
BITMAP
00
00
00
20
A2
92
52
42
04
04
04
08
08
10
20
40
00
00
ENDCHAR

STARTCHAR 0xc3
ENCODING 195
SWIDTH 500 0
DWIDTH 8 0
BBX 8 18 0 -3
BITMAP
00
00
00
7C
00
00
00
FE
10
10
10
10
10
20
20
40
00
00
ENDCHAR

STARTCHAR 0xc4
ENCODING 196
SWIDTH 500 0
DWIDTH 8 0
BBX 8 18 0 -3
BITMAP
00
00
10
10
10
10
10
18
14
12
10
10
10
10
10
10
00
00
ENDCHAR

STARTCHAR 0xc5
ENCODING 197
SWIDTH 500 0
DWIDTH 8 0
BBX 8 18 0 -3
BITMAP
00
00
08
08
08
08
7E
08
08
08
08
08
10
10
20
40
00
00
ENDCHAR

STARTCHAR 0xc6
ENCODING 198
SWIDTH 500 0
DWIDTH 8 0
BBX 8 18 0 -3
BITMAP
00
00
00
00
7C
00
00
00
00
00
00
00
00
FE
00
00
00
00
ENDCHAR

STARTCHAR 0xc7
ENCODING 199
SWIDTH 500 0
DWIDTH 8 0
BBX 8 18 0 -3
BITMAP
00
00
00
00
7E
02
02
04
24
14
08
0C
12
22
40
00
00
00
ENDCHAR

STARTCHAR 0xc8
ENCODING 200
SWIDTH 500 0
DWIDTH 8 0
BBX 8 18 0 -3
BITMAP
00
00
20
10
00
7C
04
08
08
10
34
52
92
10
10
10
00
00
ENDCHAR

STARTCHAR 0xc9
ENCODING 201
SWIDTH 500 0
DWIDTH 8 0
BBX 8 18 0 -3
BITMAP
00
00
00
02
02
02
02
04
04
04
08
08
10
20
40
00
00
00
ENDCHAR

STARTCHAR 0xca
ENCODING 202
SWIDTH 500 0
DWIDTH 8 0
BBX 8 18 0 -3
BITMAP
00
00
00
00
20
24
24
22
22
42
41
41
41
81
80
00
00
00
ENDCHAR

STARTCHAR 0xcb
ENCODING 203
SWIDTH 500 0
DWIDTH 8 0
BBX 8 18 0 -3
BITMAP
00
00
00
40
40
40
42
4C
70
40
40
40
40
40
3E
00
00
00
ENDCHAR

STARTCHAR 0xcc
ENCODING 204
SWIDTH 500 0
DWIDTH 8 0
BBX 8 18 0 -3
BITMAP
00
00
00
00
FE
02
02
02
04
04
04
08
08
10
20
40
00
00
ENDCHAR

STARTCHAR 0xcd
ENCODING 205
SWIDTH 500 0
DWIDTH 8 0
BBX 8 18 0 -3
BITMAP
00
00
00
00
00
30
28
48
44
84
82
02
01
01
00
00
00
00
ENDCHAR

STARTCHAR 0xce
ENCODING 206
SWIDTH 500 0
DWIDTH 8 0
BBX 8 18 0 -3
BITMAP
00
00
10
10
10
FE
10
10
54
54
52
52
92
92
10
10
00
00
ENDCHAR

STARTCHAR 0xcf
ENCODING 207
SWIDTH 500 0
DWIDTH 8 0
BBX 8 18 0 -3
BITMAP
00
00
00
00
FE
02
02
02
04
44
28
10
10
08
08
00
00
00
ENDCHAR

STARTCHAR 0xd0
ENCODING 208
SWIDTH 500 0
DWIDTH 8 0
BBX 8 18 0 -3
BITMAP
00
00
00
30
0C
00
00
30
0C
00
00
00
70
0C
02
00
00
00
ENDCHAR

STARTCHAR 0xd1
ENCODING 209
SWIDTH 500 0
DWIDTH 8 0
BBX 8 18 0 -3
BITMAP
00
00
00
10
10
10
10
10
20
24
24
24
42
5E
E2
02
00
00
ENDCHAR

STARTCHAR 0xd2
ENCODING 210
SWIDTH 500 0
DWIDTH 8 0
BBX 8 18 0 -3
BITMAP
00
00
00
04
04
04
04
28
18
08
14
14
20
40
80
00
00
00
ENDCHAR

STARTCHAR 0xd3
ENCODING 211
SWIDTH 500 0
DWIDTH 8 0
BBX 8 18 0 -3
BITMAP
00
00
00
7C
10
10
10
10
FE
10
10
10
10
10
0E
00
00
00
ENDCHAR

STARTCHAR 0xd4
ENCODING 212
SWIDTH 500 0
DWIDTH 8 0
BBX 8 18 0 -3
BITMAP
00
00
40
40
40
4E
72
E4
24
28
20
20
20
20
20
20
00
00
ENDCHAR

STARTCHAR 0xd5
ENCODING 213
SWIDTH 500 0
DWIDTH 8 0
BBX 8 18 0 -3
BITMAP
00
00
00
00
7C
04
04
04
04
04
04
04
04
FF
00
00
00
00
ENDCHAR

STARTCHAR 0xd6
ENCODING 214
SWIDTH 500 0
DWIDTH 8 0
BBX 8 18 0 -3
BITMAP
00
00
00
00
7E
02
02
02
02
7E
02
02
02
02
7E
02
00
00
ENDCHAR

STARTCHAR 0xd7
ENCODING 215
SWIDTH 500 0
DWIDTH 8 0
BBX 8 18 0 -3
BITMAP
00
00
00
7C
00
00
00
FE
02
02
02
04
04
08
10
20
00
00
ENDCHAR

STARTCHAR 0xd8
ENCODING 216
SWIDTH 500 0
DWIDTH 8 0
BBX 8 18 0 -3
BITMAP
00
00
00
44
44
44
44
44
44
44
04
04
08
08
10
20
00
00
ENDCHAR

STARTCHAR 0xd9
ENCODING 217
SWIDTH 500 0
DWIDTH 8 0
BBX 8 18 0 -3
BITMAP
00
00
00
08
48
48
48
48
48
49
49
4A
4A
8C
88
00
00
00
ENDCHAR

STARTCHAR 0xda
ENCODING 218
SWIDTH 500 0
DWIDTH 8 0
BBX 8 18 0 -3
BITMAP
00
00
00
40
40
40
40
40
42
42
44
44
48
50
60
00
00
00
ENDCHAR

STARTCHAR 0xdb
ENCODING 219
SWIDTH 500 0
DWIDTH 8 0
BBX 8 18 0 -3
BITMAP
00
00
00
00
7E
42
42
42
42
42
42
42
42
7E
42
00
00
00
ENDCHAR

STARTCHAR 0xdc
ENCODING 220
SWIDTH 500 0
DWIDTH 8 0
BBX 8 18 0 -3
BITMAP
00
00
00
7E
42
42
42
42
42
02
02
04
04
08
10
20
00
00
ENDCHAR

STARTCHAR 0xdd
ENCODING 221
SWIDTH 500 0
DWIDTH 8 0
BBX 8 18 0 -3
BITMAP
00
00
00
80
41
41
01
02
02
02
04
04
08
10
60
00
00
00
ENDCHAR

STARTCHAR 0xde
ENCODING 222
SWIDTH 500 0
DWIDTH 8 0
BBX 8 18 0 -3
BITMAP
00
00
40
20
80
40
00
00
00
00
00
00
00
00
00
00
00
00
ENDCHAR

STARTCHAR 0xdf
ENCODING 223
SWIDTH 500 0
DWIDTH 8 0
BBX 8 18 0 -3
BITMAP
00
00
40
A0
40
00
00
00
00
00
00
00
00
00
00
00
00
00
ENDCHAR
ENDFONT
